<svg width="25" height="25" viewBox="0 0 25 25" fill="none" xmlns="http://www.w3.org/2000/svg">
  <path
    d="M11.634 1.5C12.0189 0.833333 12.9811 0.833333 13.366 1.5L22.4593 17.25C22.8442 17.9167 22.3631 18.75 21.5933 18.75H3.40673C2.63693 18.75 2.15581 17.9167 2.54071 17.25L11.634 1.5Z"
    fill="#9E7030" />
  <path
    d="M11.52 13.16C11.4667 13.16 11.4187 13.144 11.376 13.112C11.344 13.0693 11.328 13.0213 11.328 12.968L11.088 5.992C11.088 5.93867 11.104 5.896 11.136 5.864C11.1787 5.82133 11.2267 5.8 11.28 5.8H13.152C13.2053 5.8 13.248 5.82133 13.28 5.864C13.3227 5.896 13.344 5.93867 13.344 5.992L13.12 12.968C13.12 13.0213 13.0987 13.0693 13.056 13.112C13.024 13.144 12.9813 13.16 12.928 13.16H11.52ZM12.24 16.984C11.8773 16.984 11.5733 16.8667 11.328 16.632C11.0933 16.3867 10.976 16.0827 10.976 15.72C10.976 15.3467 11.0933 15.0427 11.328 14.808C11.5627 14.5733 11.8667 14.456 12.24 14.456C12.6133 14.456 12.912 14.5733 13.136 14.808C13.3707 15.0427 13.488 15.3467 13.488 15.72C13.488 16.0827 13.3707 16.3867 13.136 16.632C12.9013 16.8667 12.6027 16.984 12.24 16.984Z"
    fill="white" />
</svg>