<svg width="12" height="12" viewBox="0 0 12 12" fill="none" xmlns="http://www.w3.org/2000/svg">
  <path
    d="M10.2002 11.4L0.600195 1.8C0.272195 1.472 0.272195 0.928 0.600195 0.6C0.928195 0.272 1.4722 0.272 1.8002 0.6L11.4002 10.2C11.7282 10.528 11.7282 11.072 11.4002 11.4C11.0722 11.728 10.5282 11.728 10.2002 11.4Z"
  />
  <path
    d="M0.599806 11.4C0.271806 11.072 0.271805 10.528 0.599806 10.2L10.1998 0.6C10.5278 0.272 11.0718 0.272 11.3998 0.6C11.7278 0.928 11.7278 1.472 11.3998 1.8L1.79981 11.4C1.47181 11.728 0.927806 11.728 0.599806 11.4Z"
  />
</svg>